<svg width="574" height="634" viewBox="0 0 574 634" fill="none" xmlns="http://www.w3.org/2000/svg">
<path d="M378.358 347.341L451.633 310.914L431.288 277.741L387.218 296.514L378.358 347.341Z" fill="#FFCB39"/>
<path d="M231.423 270.798L254.607 266.701L254.208 271.193L232.265 275.448L232.95 279.124L253.095 276.489L254.236 281.113L233.863 283.972L231.167 284.354L230.097 284.486L210.037 286.831L100.895 310.677C91.194 311.994 81.093 303.549 78.3395 291.679C75.743 280.507 80.5652 270.35 89.1966 268.031C89.7592 267.881 90.3309 267.763 90.9087 267.676L204.616 257.94L215.844 255.898L227.129 238.218L231.052 239.43L221.494 254.923L250.355 251.827L251.483 256.451L229.069 258.032L229.925 262.617L253.323 260.206L254.307 262.999L230.567 266.174L231.423 270.798Z" fill="#FD925A"/>
<path d="M206.014 249.337C207.027 253.092 217.199 292.074 217.199 292.074L126.69 319.74L121.597 268.084L206.014 249.337Z" fill="#FFCB39"/>
<path d="M144.752 180.277C144.705 180.372 144.653 180.464 144.595 180.554C143.311 182.622 139.559 182.2 137.462 182.833C134.608 183.65 131.755 184.453 129.016 185.283C127.96 185.599 118.429 187.576 118.201 188.498C117.16 192.674 116.09 196.85 115.048 201.013C113.736 206.178 113.707 211 110.626 215.505C110.44 215.769 110.269 216.019 110.069 216.282C104.79 223.199 93.8048 228.93 84.9023 230.524C80.6222 231.288 76.0996 230.695 71.7625 231.472C60.991 233.422 50.6475 238.06 40.8604 242.592C39.6905 243.145 24.7245 249.363 24.7245 250.496L23.2978 243.105L50.4763 228.021L22.827 240.905L18.3044 217.508L49.2921 206.757L17.6767 214.201L14.5522 198.036L49.2921 191.712L13.4394 192.318L10.7002 178.116C21.2213 179.542 31.8179 180.444 42.444 180.817C51.5463 181.068 63.6018 183.057 72.5472 181.16C76.6418 180.303 79.8661 177.866 82.962 175.389C90.8524 169.351 100.836 166.142 111.082 166.352C116.02 166.323 120.937 166.958 125.677 168.236C129.46 169.157 133.15 170.378 136.705 171.885C139.273 173.084 146.521 176.68 144.752 180.277Z" fill="#FFCB39"/>
<path d="M70.5641 403.358L80.0944 560.699H113.35L126.719 403.951L70.5641 403.358Z" fill="#FD925A"/>
<path d="M74.4875 603.594L176.753 603.476C176.938 592.396 162.971 588.325 151.072 587.245L115.719 578.313L117.145 554.955L76.6846 552.689L74.4875 603.594Z" fill="#7F4FE7"/>
<path d="M109.784 587.996L109.042 587.272L118.715 578.814L119.442 579.525L109.784 587.996Z" fill="#FFCB39"/>
<path d="M128.139 581.286L121.158 590.747L122.042 591.303L129.024 581.842L128.139 581.286Z" fill="#FFCB39"/>
<path d="M131.255 593.134L130.285 592.699L135.35 583.187L136.32 583.622L131.255 593.134Z" fill="#FFCB39"/>
<path d="M124.122 518.251L68.0816 517.461C68.0816 517.461 56.0261 502.719 65.2282 485.487C74.4304 468.255 66.8119 453.658 62.0895 439.06C57.3672 424.463 54.7278 408.232 63.0311 394.992C71.3345 381.752 65.2282 364.691 62.4177 354.481C59.6071 344.271 64.8002 326.407 64.8002 326.407L134.965 346.682C134.965 346.682 139.901 409.603 132.568 421.96C125.235 434.318 126.405 462.511 127.589 474.776C128.773 487.041 134.936 504.036 124.122 518.251Z" fill="#161730"/>
<path d="M128.16 416.993L206.599 558.828L233.877 547.235L180.005 397.061L128.16 416.993Z" fill="#FD925A"/>
<path d="M217.385 599.537L311.289 562.135C306.724 551.898 292.157 553.242 280.715 556.602L244.42 561.279L235.775 539.33L197.611 552.004L217.385 599.537Z" fill="#7F4FE7"/>
<path d="M226.501 503.048L174.684 522.809C174.684 522.809 157.293 513.667 158.42 494.472C159.547 475.277 146.264 464.645 135.678 452.959C125.092 441.274 115.705 427.322 117.716 412.119C119.728 396.916 106.745 383.359 99.8683 375.073C92.9916 366.786 90.0526 348.395 90.0526 348.395L163.156 341.439C163.156 341.439 194.543 397.456 193.117 411.473C191.69 425.491 204.787 450.996 211.122 461.826C217.456 472.655 230.353 486.014 226.501 503.048Z" fill="#161730"/>
<path d="M127.389 227.77C128.231 227.929 129.03 228.126 129.8 228.337C145.708 232.882 156.593 257.11 163.028 273.512C166.666 282.734 181.133 361.582 181.133 361.582L57.7239 362.531C55.9548 362.531 59.3645 311.928 59.7498 308.397C62.8599 280.323 70.2359 243.777 93.9903 232.526C102.722 228.416 117.231 225.86 127.389 227.77Z" fill="#FE4877"/>
<path d="M139.074 205.295C139.083 207.093 138.709 208.874 137.973 210.538C137.236 212.202 136.152 213.716 134.783 214.993C133.413 216.271 131.784 217.286 129.989 217.982C128.194 218.678 126.268 219.04 124.322 219.049L123.451 219.168C123.451 220.011 123.451 220.854 123.451 221.697V227.823C123.451 229.141 124.022 230.643 123.195 231.775C122.265 232.807 121.06 233.597 119.699 234.068C116.104 235.543 108.072 235.53 108.043 230.3L107.958 213.173L105.96 184.769L138.917 184.625L139.074 205.295Z" fill="#FD925A"/>
<path d="M138.203 190.764C140.329 190.764 145.18 203.49 145.18 203.49H138.275L138.203 190.764Z" fill="#FF534A"/>
<path d="M124.978 207.021C127.917 207.021 130.3 204.821 130.3 202.107C130.3 199.393 127.917 197.193 124.978 197.193C122.039 197.193 119.656 199.393 119.656 202.107C119.656 204.821 122.039 207.021 124.978 207.021Z" fill="#FF534A"/>
<path d="M128.402 192.358C128.441 192.292 128.495 192.233 128.559 192.187C128.855 191.959 129.217 191.817 129.6 191.778C131.27 191.436 135.521 190.461 136.149 192.74C136.648 194.545 133.881 194.281 132.44 194.229C130.999 194.176 127.346 194.031 128.402 192.358Z" fill="white"/>
<path d="M133.324 191.278C133.324 191.278 131.641 192.358 133.324 194.268C133.324 194.268 136.62 194.703 136.078 192.74C136.002 192.477 135.87 192.23 135.69 192.013C135.51 191.797 135.286 191.616 135.03 191.48C134.774 191.344 134.492 191.256 134.199 191.222C133.906 191.187 133.609 191.206 133.324 191.278Z" fill="#0C0604"/>
<path d="M127.047 191.791C127.047 191.791 136.078 190.777 136.078 190.276C136.078 189.776 136.591 187.826 135.008 187.839C133.424 187.852 125.449 190.329 125.977 190.817C126.505 191.304 125.977 191.304 127.047 191.791Z" fill="#161730"/>
<path d="M136.306 210.156C135.689 210.174 135.077 210.057 134.519 209.814C133.962 209.571 133.474 209.21 133.096 208.76L133.938 208.154C135.507 210.012 138.289 208.747 138.318 208.734L138.803 209.616C138.023 209.961 137.171 210.146 136.306 210.156Z" fill="#0C0604"/>
<path d="M118.415 180.58L120.37 190.803L148.276 188.34C148.276 188.34 152.114 168.064 134.009 170.054C115.904 172.043 103.663 168.091 104.32 180.988L105.917 192.661L118.087 190.988L118.415 180.58Z" fill="#FFCB39"/>
<path d="M115.105 185.744C115.105 185.744 113.222 209.722 119.072 216.875C119.072 216.875 115.063 196.916 120.498 181.463C120.512 181.463 108.571 169.316 115.105 185.744Z" fill="#FFCB39"/>
<path d="M109.727 199.907C113.099 199.907 115.833 197.382 115.833 194.268C115.833 191.154 113.099 188.63 109.727 188.63C106.354 188.63 103.62 191.154 103.62 194.268C103.62 197.382 106.354 199.907 109.727 199.907Z" fill="#FD925A"/>
<path d="M112.124 197.008L111.054 196.903C111.166 196.433 111.161 195.944 111.037 195.476C110.913 195.008 110.675 194.572 110.34 194.202C110.004 193.949 109.616 193.76 109.2 193.646C108.783 193.533 108.346 193.498 107.915 193.544L107.786 192.556C108.779 192.448 109.783 192.647 110.64 193.122C110.848 192.599 110.848 192.025 110.64 191.502C110.61 191.416 110.562 191.336 110.499 191.269C110.435 191.201 110.357 191.145 110.269 191.106L110.611 190.171C110.832 190.249 111.032 190.367 111.202 190.519C111.371 190.671 111.505 190.853 111.596 191.054C111.769 191.509 111.844 191.991 111.814 192.473C111.785 192.954 111.652 193.426 111.424 193.86C112.075 194.792 112.325 195.915 112.124 197.008Z" fill="#0C0604"/>
<path d="M74.6729 602.896C74.6729 602.896 73.018 619.417 79.7377 614.029C86.4574 608.64 89.4249 606.335 92.4067 608.996C95.3885 611.657 100.61 616.044 103.221 611.328C105.832 606.611 108.2 614.029 116.518 612.342C124.835 610.656 122.224 606.611 124.621 607.283C127.018 607.955 124.336 616.044 131.855 613.014C139.373 609.984 137.89 605.61 141.984 606.954C146.079 608.298 150.188 617.783 158.006 608.996C165.824 600.209 166.209 619.891 170.689 615.109C175.169 610.327 176.753 603.015 176.753 603.015L74.6729 602.896Z" fill="#FE4877"/>
<path d="M216.671 597.771C216.671 597.771 222.164 613.581 226.073 606.163C229.982 598.746 231.78 595.624 235.632 596.941C239.484 598.259 246.19 600.433 246.589 595.15C246.988 589.867 252.296 595.822 259.301 591.197C266.306 586.573 262.083 583.872 264.622 583.596C267.162 583.319 268.089 591.764 273.739 586.231C279.389 580.697 276.15 577.219 280.501 577.009C284.853 576.798 292.671 584.004 296.195 573.056C299.719 562.109 308.379 580.091 310.462 574.071C312.545 568.05 310.933 560.738 310.933 560.738L216.671 597.771Z" fill="#FE4877"/>
<path d="M253.469 559.749L250.122 571.659L251.157 571.908L254.505 559.997L253.469 559.749Z" fill="#FFCB39"/>
<path d="M262.582 570.316L263.096 558.868L264.166 558.92L263.652 570.356L262.582 570.316Z" fill="#FFCB39"/>
<path d="M271.455 558.401L270.39 558.5L271.539 569.052L272.603 568.953L271.455 558.401Z" fill="#FFCB39"/>
<path d="M97.129 241.327C98.4606 241.327 99.5401 240.33 99.5401 239.1C99.5401 237.871 98.4606 236.874 97.129 236.874C95.7974 236.874 94.7179 237.871 94.7179 239.1C94.7179 240.33 95.7974 241.327 97.129 241.327Z" fill="#FFCB39"/>
<path d="M253.865 320.676L234.277 326.13L241.496 329.819L241.439 329.911L265.407 340.595L263.666 344.271L239.869 332.664L237.843 336.208L263.11 347.749L262.34 350.134L236.274 338.949L234.12 342.73L260.057 352.874L256.776 355.799L231.994 346.458L230.31 349.396L252.224 358.908L250.398 362.768L202.533 340.951L209.295 316.381L228.014 323.627L250.726 317.633L253.865 320.676Z" fill="#FD925A"/>
<path d="M220.224 312.139L206.87 349.238L144.31 330.003L130.043 325.616L126.319 320.926L78.9815 270.073C77.2321 268.182 75.918 265.981 75.1192 263.606C74.3204 261.23 74.0537 258.729 74.3354 256.256C74.617 253.782 75.4411 251.387 76.7574 249.217C78.0737 247.047 79.8547 245.147 81.9918 243.632C84.9124 241.48 88.3879 240.063 92.0785 239.522C95.6782 238.952 99.3759 239.243 102.82 240.366C106.263 241.489 109.339 243.407 111.753 245.938L139.074 275.277L154.339 291.877L180.576 299.953L220.224 312.139Z" fill="#FFCB39"/>
<path d="M513.537 529.963L474.36 533.507L477.756 591.461L512.367 589.59L513.537 529.963Z" fill="#FD925A"/>
<path d="M514.55 613.857L423.242 613.739C423.085 603.845 435.554 600.209 446.226 599.247L477.798 591.263L476.514 570.395L512.61 568.314L514.55 613.857Z" fill="#161730"/>
<path d="M476.299 592.855L475.656 593.645L485.893 600.758L486.536 599.968L476.299 592.855Z" fill="#FFCB39"/>
<path d="M465.287 596.773L464.571 597.507L473.672 605.085L474.389 604.351L465.287 596.773Z" fill="#FFCB39"/>
<path d="M453.787 597.052L452.975 597.696L460.246 605.51L461.058 604.866L453.787 597.052Z" fill="#FFCB39"/>
<path d="M461.905 450.035C462.105 450.509 462.304 450.93 462.504 451.352L462.661 451.629C464.632 455.362 465.933 459.367 466.513 463.486L466.684 464.526C467.695 471.626 468.081 478.79 467.84 485.948C467.84 486.29 467.84 486.633 467.84 486.962C467.712 491.613 467.426 495.763 467.141 498.819C466.428 506.236 463.674 515.564 464.972 524.759C464.972 525.102 465.058 525.458 465.129 525.8C465.812 530.065 467.561 534.124 470.237 537.657H474.631L513.408 537.117L520.299 537.025C520.299 537.025 529.701 525.523 524.209 511.466L523.809 510.518C523.509 509.833 523.181 509.2 522.81 508.463C517.703 498.938 518.373 490.308 520.642 482.009C520.756 481.587 520.87 481.165 520.998 480.691C522.354 476.027 524.152 471.469 525.621 466.924C526.697 463.671 527.593 460.368 528.303 457.03C528.851 454.458 529.233 451.858 529.445 449.244L529.53 447.927V446.78C529.719 442.237 529.043 437.697 527.533 433.369C527.428 433.062 527.314 432.759 527.19 432.46C526.525 430.777 525.704 429.151 524.736 427.599C521.027 421.697 520.528 414.925 521.284 408.509C521.284 408.18 521.355 407.864 521.412 407.534C521.75 404.997 522.226 402.478 522.839 399.985C523.638 396.797 524.537 393.886 525.222 391.422C527.718 382.358 523.096 366.391 523.096 366.391L520.242 367.194L510.256 370.08L503.793 371.937L480.723 378.603L480.309 378.722L479.91 378.84L477.484 379.539L473.689 380.632L471.792 381.186L468.297 382.187L468.083 382.253L460.378 384.479C460.378 384.479 460.093 388.168 459.765 393.833C459.765 394.32 459.765 394.821 459.679 395.348C459.679 395.559 459.679 395.77 459.679 395.993C459.423 400.855 459.166 406.823 459.037 413.12C459.037 413.476 459.037 413.845 459.037 414.2C459.037 415.241 459.037 416.282 459.037 417.336C458.952 430.339 459.508 443.882 461.905 450.035Z" fill="#161730"/>
<path d="M384.008 522.164L348.141 507.211L319.792 559.013L350.809 573.32L384.008 522.164Z" fill="#FD925A"/>
<path d="M339.552 595.361L260.414 553.203C265.607 544.56 278.39 547.142 288.148 551.213L319.835 558.841L329.979 540.16L362.422 555.034L339.552 595.361Z" fill="#161730"/>
<path d="M317.788 559.537L316.804 559.925L321.843 570.802L322.826 570.414L317.788 559.537Z" fill="#FFCB39"/>
<path d="M306.123 557.877L305.105 558.183L308.905 568.943L309.922 568.636L306.123 557.877Z" fill="#FFCB39"/>
<path d="M295.939 552.878L294.888 553.063L296.981 563.182L298.032 562.997L295.939 552.878Z" fill="#FFCB39"/>
<path d="M342.32 508.884L346.158 510.847L380.07 528.224L386.091 531.307C389.775 529.675 393.087 527.408 395.849 524.628C396.107 524.39 396.35 524.139 396.577 523.877C398.663 521.666 400.344 519.156 401.556 516.446C401.95 515.587 402.288 514.708 402.569 513.811C403.211 511.826 403.608 509.78 403.753 507.712C403.827 506.542 403.97 505.376 404.181 504.221C404.181 503.825 404.31 503.43 404.395 503.048C406.849 491.428 415.181 484.288 423.47 477.371L425.153 475.962C426.309 475 427.45 474.025 428.578 473.05C429.12 472.576 429.662 472.102 430.19 471.614C430.718 471.153 431.231 470.679 431.745 470.204C437.481 465.096 442.203 459.098 445.698 452.485C446.14 451.576 446.554 450.667 446.91 449.732C448.349 446.152 449.088 442.365 449.093 438.547C449.093 430.26 453.816 423.054 459.151 417.165C460.578 415.557 462.105 414.042 463.56 412.633L464.873 411.315C466.385 409.879 467.826 408.562 469.081 407.363C470.378 406.098 471.521 404.707 472.491 403.213C473.839 401.169 475.036 399.043 476.072 396.85C476.529 395.901 476.957 394.966 477.342 394.057C477.912 392.739 478.412 391.422 478.854 390.315C480.095 387.022 480.78 384.65 480.78 384.65L479.739 384.44L476.443 383.755L473.59 383.162L472.249 382.898L468.454 382.108H468.311L416.75 371.568C416.75 371.568 411.971 378.09 405.979 386.916C403.354 390.79 400.5 395.098 397.69 399.498C397.519 399.788 397.333 400.078 397.148 400.354C393.624 405.953 390.228 411.631 387.574 416.704L387.018 417.784C384.165 423.277 382.367 427.954 382.31 430.84C382.19 433.428 381.71 435.992 380.883 438.467C380.741 438.915 380.598 439.363 380.441 439.785C377.396 447.702 373.431 455.291 368.614 462.418L367.801 463.736C365.147 467.767 362.622 471.285 360.667 473.827C358.099 477.226 354.675 480.836 351.451 484.854C351.194 485.184 350.923 485.513 350.666 485.856C345.616 492.245 341.421 499.715 342.32 508.884Z" fill="#161730"/>
<path d="M515.178 613.343L423.213 612.948C423.213 612.948 422.314 622.631 427.679 620.207C433.043 617.783 434.598 620.418 437.28 620.642C439.963 620.866 441.56 620.879 447.125 618.85C452.689 616.821 450.905 621.288 455.142 620.813C459.38 620.339 462.989 619.588 466.456 617.019C469.923 614.45 472.063 621.248 476.115 620.971C480.167 620.695 478.155 617.586 483.077 616.163C487.999 614.74 486.187 621.564 489.982 621.037C493.777 620.51 492.465 614.977 498.271 615.623C504.078 616.268 502.252 621.696 506.732 621.143C511.211 620.589 514.179 622.473 515.178 613.343Z" fill="#FE4877"/>
<path d="M340.323 593.845L260.014 552.425C260.014 552.425 254.15 560.514 260.128 560.778C266.106 561.041 266.078 564.058 268.303 565.455C270.529 566.851 271.913 567.563 277.862 568.274C283.811 568.986 279.888 572.095 283.854 573.544C287.82 574.993 291.359 575.981 295.738 575.27C300.118 574.558 298.435 581.488 302.13 583.029C305.825 584.571 305.711 580.974 310.69 581.936C315.669 582.898 310.576 588.036 314.186 589.274C317.795 590.512 319.536 585.085 324.272 588.233C329.009 591.382 324.586 595.334 328.781 596.849C332.975 598.364 334.644 601.394 340.323 593.845Z" fill="#FE4877"/>
<path d="M483.02 433.501C485.474 436.136 489.069 441.946 492.508 449.31L487.443 452.156C479.938 456.371 472.291 460.666 466.513 463.393L466.684 464.434C471.92 461.997 479.011 458.058 487.999 452.999L492.921 450.232C494.605 453.947 496.245 458.045 497.672 462.339C487.157 468.136 479.781 474.117 482.25 480.401C482.812 481.964 483.753 483.388 485.002 484.563C486.251 485.739 487.773 486.636 489.454 487.186C493.706 488.363 498.216 488.49 502.537 487.555C502.771 492.749 502.053 497.943 500.411 502.916C497.087 512.336 489.868 518.33 479.011 520.715C474.246 521.724 469.564 523.045 465.001 524.667C465.001 525.01 465.087 525.365 465.158 525.708C469.745 524.038 474.461 522.691 479.268 521.677C490.553 519.2 498.029 512.995 501.481 503.232C503.157 498.108 503.88 492.758 503.621 487.41C509.496 486.162 515.204 484.32 520.642 481.916C520.756 481.495 520.87 481.073 520.999 480.599C515.45 483.101 509.623 485.04 503.621 486.382C503.089 478.414 501.508 470.535 498.913 462.919C504.135 460.073 510.042 457.294 515.691 454.632C518.402 453.315 521.098 452.09 523.666 450.825C525.416 449.947 527.1 449.104 528.717 448.296L529.502 447.887V446.741L528.075 447.479C526.477 448.322 524.779 449.165 523.024 450.008C520.499 451.233 517.846 452.485 515.163 453.75C509.457 456.45 503.664 459.164 498.542 461.931C497.116 457.636 495.475 453.539 493.777 449.824C500.725 445.95 507.959 441.998 514.664 438.757C516.433 437.901 518.159 437.111 519.829 436.373C522.554 435.174 525.122 434.133 527.504 433.33C527.4 433.022 527.285 432.719 527.162 432.42C524.694 433.237 522.026 434.304 519.215 435.543C517.546 436.281 515.82 437.071 514.065 437.927C507.488 441.102 500.369 444.989 493.364 448.902C489.897 441.419 486.23 435.582 483.79 432.895C481.351 430.207 478.954 429.114 476.586 429.483C471.121 430.326 466.684 439.073 461.862 450.074C462.062 450.548 462.262 450.97 462.461 451.391C467.17 440.602 471.721 431.274 476.728 430.497C478.783 430.128 480.794 431.129 483.02 433.501ZM498 463.393C500.524 470.923 502.038 478.71 502.509 486.58C497.915 487.397 493.406 487.542 489.811 486.317C488.28 485.809 486.893 484.986 485.756 483.911C484.62 482.837 483.762 481.537 483.248 480.112C481.065 474.552 488.185 468.847 498 463.393Z" fill="white"/>
<path d="M510.47 530.24C511.079 531.008 511.741 531.738 512.453 532.427L513.223 531.742C512.691 531.228 512.191 530.687 511.725 530.121C508.872 526.815 508.001 523.771 509.086 521.031C510.84 516.591 517.389 513.469 524.18 511.374L523.781 510.426C516.776 512.599 509.956 515.893 508.087 520.688C506.917 523.626 507.716 526.828 510.47 530.24Z" fill="white"/>
<path d="M470.294 501.125L470.765 502.02C478.255 498.608 481.622 495.565 481.051 492.706C480.381 489.32 473.918 487.173 467.84 485.895C467.84 486.238 467.84 486.58 467.84 486.909C473.732 488.227 479.482 490.137 480.038 492.891C480.466 495.196 477.099 498.042 470.294 501.125Z" fill="white"/>
<path d="M397.062 400.328C402.135 402.245 406.927 404.742 411.329 407.758L412.385 408.483C416.149 411.166 419.609 414.194 422.714 417.52C428.292 423.462 432.701 425.583 436.638 425.583C438.798 425.528 440.908 424.971 442.773 423.963L443.815 423.396C445.599 422.346 447.322 421.212 448.979 419.997C452.069 417.637 455.456 415.628 459.066 414.016C460.473 413.419 461.94 412.951 463.446 412.619C466.973 411.844 470.638 411.759 474.203 412.369C481.139 413.385 488.203 413.407 495.147 412.435C497.273 412.172 499.356 411.855 501.382 411.513C503.407 411.17 505.248 410.841 507.088 410.512C511.747 409.58 516.457 408.885 521.198 408.43C521.198 408.101 521.27 407.784 521.327 407.455C516.474 407.887 511.653 408.582 506.889 409.537C504.848 409.906 502.78 410.288 500.697 410.63C498.614 410.973 496.559 411.276 494.448 411.539C487.778 412.431 481 412.382 474.346 411.394C471.17 410.874 467.92 410.874 464.744 411.394C462.784 411.724 460.87 412.254 459.037 412.975C455.17 414.63 451.55 416.738 448.266 419.246C446.582 420.432 444.999 421.552 443.444 422.461C443.101 422.658 442.759 422.856 442.416 423.027C437.024 425.846 431.745 425.754 423.47 416.914C420.479 413.714 417.163 410.785 413.569 408.167C413.226 407.916 412.884 407.666 412.527 407.429C407.909 404.2 402.854 401.543 397.49 399.524C397.433 399.761 397.247 400.051 397.062 400.328Z" fill="white"/>
<path d="M386.932 417.757C391.213 417.296 395.807 415.254 400.871 413.015C404.615 411.269 408.481 409.755 412.442 408.483C412.86 408.351 413.274 408.232 413.683 408.127C418.251 406.766 423.112 406.467 427.836 407.257C435.454 408.667 439.948 414.951 442.531 422.988C442.63 423.304 442.745 423.633 442.83 423.963C445.498 432.921 445.912 443.816 445.684 452.472C446.126 451.563 446.54 450.654 446.896 449.718C447.025 441.432 446.44 431.617 443.914 423.37C443.815 423.04 443.715 422.724 443.601 422.395C440.847 414.174 436.11 407.784 428.007 406.269C422.859 405.409 417.558 405.786 412.613 407.363C412.199 407.468 411.771 407.6 411.357 407.732C407.604 408.985 403.935 410.445 400.372 412.106C395.678 414.187 391.398 416.058 387.532 416.651L386.932 417.757Z" fill="white"/>
<path d="M390.77 442.578C387.603 447.255 389.829 455.752 400.186 462.26C405.708 465.725 410.073 466.476 413.184 464.46C417.178 461.826 418.305 455.028 417.72 447.479C426.409 450.865 431.559 453.644 430.946 467.57C430.913 468.945 430.638 470.307 430.133 471.601C430.66 471.14 431.174 470.666 431.688 470.191C431.88 469.323 431.99 468.442 432.016 467.556C432.672 452.696 426.751 449.85 417.635 446.319C417.266 442.666 416.583 439.044 415.595 435.49C415.356 434.543 414.868 433.665 414.174 432.934C413.479 432.203 412.6 431.642 411.614 431.301C405.18 428.956 392.425 433.237 380.783 438.388C380.641 438.836 380.498 439.284 380.341 439.706C392.054 434.436 404.994 429.917 411.215 432.196C412.047 432.475 412.79 432.944 413.374 433.559C413.957 434.174 414.363 434.915 414.553 435.714C415.484 439.044 416.137 442.436 416.508 445.858C412.891 444.539 409.369 443.008 405.964 441.274C398.132 437.229 392.882 439.442 390.77 442.578ZM391.669 443.092C394.137 439.456 399.53 439.139 405.437 442.209C408.888 443.972 412.457 445.53 416.123 446.873L416.608 447.057C417.25 454.593 416.208 461.299 412.57 463.657C409.874 465.409 405.907 464.658 400.786 461.444C390.984 455.278 388.773 447.386 391.669 443.158V443.092ZM350.595 485.816C352.25 490.704 354.504 493.721 357.471 494.919C360.054 495.823 362.906 495.823 365.489 494.919C364.562 504.866 365.489 513.113 374.249 515.577L377.274 516.42C386.576 519.055 392.439 520.636 395.821 524.628C396.078 524.39 396.321 524.139 396.548 523.877C392.939 519.753 386.861 518.054 377.545 515.471L374.535 514.628C366.417 512.349 365.618 504.3 366.559 494.59C368.95 493.772 371.293 492.84 373.579 491.797C376.557 490.426 379.637 489.25 382.795 488.28C382.334 489.161 382.068 490.118 382.014 491.096C381.96 492.073 382.119 493.051 382.481 493.971C383.794 496.764 387.86 498.608 394.893 499.61C397.743 500.041 400.409 501.189 402.598 502.929C402.469 504.115 402.312 505.34 402.155 506.605C401.622 509.861 401.411 513.155 401.528 516.446C401.922 515.587 402.26 514.708 402.54 513.811C402.54 511.48 402.897 509.108 403.211 506.75C403.339 505.762 403.468 504.774 403.582 503.786L404.096 504.26C404.096 503.865 404.224 503.47 404.31 503.088L403.71 502.561C404.295 495.973 403.539 490.15 395.15 487.239C391.789 486.135 388.146 485.988 384.693 486.817C385.996 484.64 387.425 482.529 388.973 480.494L390.685 478.135C393.31 474.473 400.586 475.501 408.29 476.607C413.597 477.358 419.019 478.135 423.342 477.411L425.153 475.962C420.873 477.279 414.61 476.436 408.575 475.58C400.529 474.433 392.882 473.353 389.914 477.556C389.358 478.346 388.773 479.123 388.202 479.901C386.428 482.189 384.835 484.593 383.437 487.094C379.918 488.098 376.497 489.371 373.208 490.901C370.996 491.876 368.828 492.812 366.759 493.536C367.044 490.901 367.43 488.266 367.815 485.553C368.999 477.384 370.197 468.966 368.571 462.445L367.758 463.762C368.985 469.967 367.858 477.832 366.759 485.473C366.345 488.359 365.932 491.204 365.646 493.931C363.2 494.874 360.46 494.931 357.971 494.089C355.117 492.917 353.02 489.9 351.436 484.867C351.123 485.144 350.852 485.473 350.595 485.816ZM384.136 487.95C385.886 487.515 387.688 487.285 389.501 487.265C391.317 487.256 393.119 487.551 394.822 488.135C402.241 490.77 403.182 495.71 402.726 501.757C400.511 500.136 397.883 499.065 395.093 498.648C388.445 497.699 384.65 496.013 383.48 493.589C382.724 491.903 383.123 490.045 384.136 487.95Z" fill="white"/>
<path d="M453.687 198.458C453.687 198.458 445.584 204.794 444.528 217.468C443.472 230.142 413.169 232.368 413.169 232.368C413.169 232.368 441.86 231.459 442.516 216.757C443.033 207.743 446.612 199.109 452.746 192.081C452.746 192.081 457.967 193.478 453.687 198.458Z" fill="#161730"/>
<path d="M405.708 372.267C405.708 379.078 405.808 384.545 405.936 388.076C406.036 390.869 406.136 392.423 406.136 392.423L421.829 393.438L463.888 396.138C471.892 396.652 480.081 397.166 488.013 397.693L525.393 400.091L541.229 401.092C541.6 401.026 541.728 399.248 541.685 396.376C541.643 393.504 541.471 389.683 541.2 385.349C540.259 370.607 538.276 350.384 537.791 347.077C537.505 345.22 537.22 343.349 536.92 341.439C535.708 333.745 534.324 325.735 532.64 317.725C531.727 313.232 530.729 308.74 529.63 304.3C523.353 278.623 514.179 254.765 500.24 242.908C498.673 241.576 496.983 240.373 495.19 239.311C494.356 238.828 493.494 238.388 492.607 237.994C489.882 236.747 487.01 235.797 484.047 235.161L483.02 234.937C477.486 233.859 471.797 233.641 466.185 234.292C462.911 234.656 459.708 235.441 456.669 236.624C456.355 236.742 456.027 236.874 455.713 237.019C454.814 237.427 454.001 238.06 453.145 238.336C449.143 239.728 445.414 241.713 442.103 244.212C441.546 244.607 441.033 245.029 440.49 245.53C423.827 259.139 415.024 285.803 410.459 312.719C407.308 332.435 405.72 352.337 405.708 372.267Z" fill="#7F4FE7"/>
<path d="M444.785 196.007L446.126 215.874C446.24 217.602 446.722 219.292 447.545 220.847C448.367 222.403 449.513 223.794 450.917 224.94C452.322 226.086 453.957 226.966 455.73 227.529C457.502 228.091 459.378 228.326 461.249 228.218L462.076 228.284C462.148 229.101 462.19 229.905 462.247 230.722C462.39 232.671 462.518 234.674 462.647 236.597C462.732 237.915 462.29 239.338 463.175 240.444C464.133 241.389 465.343 242.084 466.684 242.46C470.251 243.646 477.97 243.171 477.627 238.139L476.514 221.631V194.163L444.785 196.007Z" fill="#FD925A"/>
<path d="M445.955 201.857C443.914 201.975 439.991 212.396 439.991 212.396L446.639 212.014L445.955 201.857Z" fill="#FF534A"/>
<path d="M459.451 216.717C462.28 216.717 464.573 214.6 464.573 211.988C464.573 209.376 462.28 207.258 459.451 207.258C456.622 207.258 454.329 209.376 454.329 211.988C454.329 214.6 456.622 216.717 459.451 216.717Z" fill="#FF534A"/>
<path d="M455.542 202.818C455.502 202.753 455.449 202.694 455.385 202.647C455.082 202.453 454.726 202.339 454.358 202.318C452.731 202.094 448.565 201.409 448.123 203.635C447.767 205.401 450.406 204.953 451.804 204.847C453.202 204.742 456.626 204.36 455.542 202.818Z" fill="white"/>
<path d="M450.677 202.067C450.677 202.067 452.375 203.016 450.877 204.939C450.877 204.939 447.738 205.545 448.123 203.622C448.179 203.365 448.29 203.12 448.449 202.902C448.608 202.685 448.812 202.498 449.049 202.354C449.287 202.209 449.553 202.109 449.832 202.06C450.112 202.011 450.399 202.014 450.677 202.067Z" fill="#0C0604"/>
<path d="M447.652 220.894C448.526 221.21 449.488 221.252 450.39 221.014C451.292 220.776 452.085 220.271 452.646 219.576L451.761 219.023C450.335 220.88 447.724 219.879 447.61 219.826L447.196 220.735L447.652 220.894Z" fill="#33270A"/>
<path d="M448.565 199.301C448.565 199.301 452.36 197.601 457.126 201.29C457.14 201.29 449.407 200.75 448.565 199.301Z" fill="#0C0604"/>
<path d="M469.381 198.668C469.381 198.668 465.914 207.89 472.035 219.339C478.155 230.787 453.402 247.005 453.402 247.005C453.402 247.005 477.556 232.671 469.966 219.734C465.417 211.727 463.715 202.6 465.101 193.649C465.101 193.649 470.38 192.345 469.381 198.668Z" fill="#161730"/>
<path d="M400.343 258.427L423.798 270.824L458.795 234.674L455.314 232.039L439.791 248.744L437.195 246.478L453.316 227.257L451.191 223.607L433.942 243.646L430.632 240.747L448.979 220.88L446.725 219.576L428.221 238.639L425.139 235.952L443.301 218.166L439.991 215.69L416.936 239.14L416.508 220.525L412.556 222.488L412.713 243.975L400.343 258.427Z" fill="#FD925A"/>
<path d="M343.369 326.463L378.379 347.337L435.477 265.68L400.467 244.805L343.369 326.463Z" fill="#FFCB39"/>
<path d="M473.804 374.743L459.137 394.755L462.59 397.087L476.628 376.377L480.238 378.458L464.93 399.801L466.856 401.474L483.034 380.066L486.901 382.305L470.265 402.778L474.631 403.753L490.696 384.492L493.72 386.244L480.152 404.333L483.776 406.77L497.729 388.55L498.414 387.654L500.098 385.177L512.838 366.378L493.934 348.553L481.879 363.242L459.366 368.525L458.31 372.556L477.884 368.248L473.718 374.691L473.804 374.743Z" fill="#FD925A"/>
<path d="M523.752 325.906L555.296 300.559L518.744 240.918C517.377 238.721 515.553 236.794 513.377 235.249C511.201 233.704 508.716 232.572 506.064 231.917C503.413 231.262 500.647 231.097 497.926 231.432C495.205 231.767 492.583 232.596 490.211 233.87C487.833 235.135 485.749 236.821 484.078 238.83C482.408 240.84 481.182 243.134 480.473 245.582C479.764 248.03 479.585 250.582 479.946 253.094C480.308 255.606 481.202 258.027 482.578 260.219L523.752 325.906Z" fill="#FFCB39"/>
<path d="M477.739 360.072L515.237 376.863L555.301 300.57L517.804 283.78L477.739 360.072Z" fill="#FFCB39"/>
<path d="M439.049 200.46C448.551 201.778 456.07 197.351 459.094 195.19C463.66 206.191 471.835 222.58 481.008 225.808C481.008 225.808 495.432 196.508 479.239 186.97C480.744 185.243 481.877 183.266 482.578 181.147C483.504 178.273 483.598 175.225 482.849 172.308C482.1 169.39 480.534 166.705 478.309 164.522C476.084 162.338 473.277 160.732 470.169 159.865C467.061 158.997 463.761 158.898 460.598 159.578C457.436 160.257 454.522 161.692 452.148 163.737C449.774 165.783 448.023 168.368 447.071 171.235C446.119 174.101 445.998 177.149 446.721 180.072C447.444 182.995 448.985 185.691 451.191 187.892C438.807 192.635 439.049 200.46 439.049 200.46Z" fill="#161730"/>
<path d="M469.31 212.357C472.564 212.357 475.202 209.921 475.202 206.916C475.202 203.911 472.564 201.475 469.31 201.475C466.055 201.475 463.417 203.911 463.417 206.916C463.417 209.921 466.055 212.357 469.31 212.357Z" fill="#FD925A"/>
<path d="M467.412 207.06C467.036 207.95 466.956 208.922 467.184 209.853L468.24 209.682C468.095 209.227 468.065 208.747 468.151 208.279C468.238 207.811 468.439 207.367 468.739 206.981C469.376 206.443 470.215 206.155 471.079 206.178V205.19C469.992 205.156 468.93 205.493 468.097 206.138C467.825 205.642 467.754 205.072 467.897 204.531C468.011 204.228 468.211 204.136 468.24 204.136L467.826 203.214C467.614 203.305 467.424 203.435 467.267 203.596C467.11 203.757 466.99 203.945 466.913 204.149C466.782 204.641 466.759 205.151 466.845 205.651C466.931 206.151 467.123 206.63 467.412 207.06Z" fill="#0C0604"/>
<path d="M429.933 100.23H222.449V194.15H429.933V100.23Z" fill="#FFCB39"/>
<path d="M394.979 184.111L434.356 208.141L401.756 167.959L394.979 184.111Z" fill="#FFCB39"/>
<path d="M245.847 149.699L259.401 163.467L292.628 120.9" stroke="#161730" stroke-width="6" stroke-miterlimit="10"/>
<path d="M409.246 129.029H323.816V132.784H409.246V129.029Z" fill="#161730"/>
<path d="M386.191 139.674H323.816V143.428H386.191V139.674Z" fill="#161730"/>
<path d="M395.921 150.319H323.816V154.073H395.921V150.319Z" fill="#161730"/>
<path d="M166.052 116.289H373.536V22.3696H166.052V116.289Z" fill="#FE4877"/>
<path d="M193.188 110.638L164.711 145.391L180.976 97.4896L193.188 110.638Z" fill="#6562BE"/>
<path d="M272.17 51.1687H186.739V54.9234H272.17V51.1687Z" fill="#FFCB39"/>
<path d="M249.114 61.8004H186.739V65.555H249.114V61.8004Z" fill="#FFCB39"/>
<path d="M258.844 72.4452H186.739V76.1999H258.844V72.4452Z" fill="#FFCB39"/>
<path d="M346.871 47.0188L305.511 85.8303" stroke="#FFCB39" stroke-width="6" stroke-miterlimit="10"/>
<path d="M305.511 47.0188L346.871 85.8303" stroke="#FFCB39" stroke-width="6" stroke-miterlimit="10"/>
<path d="M313.358 563.768V573.32H304.627V600.709C304.627 605.007 302.778 609.129 299.487 612.168C296.196 615.206 291.733 616.914 287.078 616.914H273.425C268.773 616.91 264.314 615.201 261.026 612.163C257.738 609.124 255.891 605.005 255.891 600.709V573.32H248.843V563.768H313.358Z" fill="#FB9159"/>
<path d="M291.116 534.442C294.897 534.93 306.581 536.998 312.374 544.35C312.374 544.35 292.528 550.449 290.06 535.536C276.778 549.764 280.715 563.466 280.773 563.637L279.745 563.913C278.994 560.709 278.888 557.404 279.431 554.164C276.578 555.021 262.197 558.578 251.796 549.145C251.796 549.145 269.487 546.115 279.503 553.664C280.616 546.971 284.396 537.855 295.425 529.265C292.571 528.053 278.533 521.36 279.146 509.846C279.146 509.846 296.338 510.9 295.924 528.883C297.972 527.317 300.115 525.861 302.344 524.522C311.774 518.831 316.026 514.944 316.14 511.888C316.254 509.121 313.03 506.869 308.579 503.746C303.409 500.416 298.823 496.373 294.982 491.758L295.853 491.178C299.63 495.717 304.144 499.689 309.235 502.956C313.758 506.131 317.339 508.647 317.21 511.928C317.082 515.208 312.816 519.384 302.943 525.352L302.415 525.682C318.109 524.97 321.733 533.402 321.733 533.402C314.485 537.011 304.013 528.791 301.231 526.419C297.547 528.738 294.154 531.429 291.116 534.442Z" fill="#FFCB39"/>
<path d="M297.921 467.306C297.921 467.306 290.859 478.794 294.982 483.603C299.105 488.411 304.812 473.524 297.921 467.306Z" fill="#6562BE"/>
<path d="M294.198 491.073C294.198 491.073 287.064 502.561 291.259 507.369C295.453 512.178 301.032 497.291 294.198 491.073Z" fill="#6562BE"/>
<path d="M290.602 488.095C290.602 488.095 280.073 479.137 274.067 481.758C268.061 484.38 282.485 492.877 290.602 488.095Z" fill="#6562BE"/>
<path d="M299.605 490.256C299.605 490.256 312.887 495.157 317.495 490.73C322.104 486.303 305.397 483.102 299.605 490.256Z" fill="#6562BE"/>
<path d="M298.891 485.974C298.891 485.974 313.158 485.21 315.298 479.387C317.438 473.564 300.803 477.253 298.891 485.974Z" fill="#6562BE"/>
<path d="M291.729 491.112C291.729 491.112 277.463 490.308 274.609 495.855C271.756 501.401 288.705 499.57 291.729 491.112Z" fill="#6562BE"/>
<path d="M298.178 492.311C298.178 492.311 302.059 505.024 308.664 505.696C315.27 506.368 307.751 492.166 298.178 492.311Z" fill="#6562BE"/>
<path d="M293.327 484.551C293.327 484.551 289.504 471.812 282.898 471.113C276.293 470.415 283.683 484.657 293.327 484.551Z" fill="#6562BE"/>
<path d="M295.239 494.037C298.667 494.037 301.445 491.471 301.445 488.306C301.445 485.141 298.667 482.575 295.239 482.575C291.812 482.575 289.033 485.141 289.033 488.306C289.033 491.471 291.812 494.037 295.239 494.037Z" fill="#FE4877"/>
</svg>
